<svg xmlns="http://www.w3.org/2000/svg" width="520" height="96" class="svgbob"><style>.svgbob line, .svgbob path, .svgbob circle, .svgbob rect, .svgbob polygon {
    stroke: black;
    stroke-width: 2;
    stroke-opacity: 1;
    fill-opacity: 1;
    stroke-linecap: round;
    stroke-linejoin: miter;
}
.svgbob text {
    white-space: pre;
    fill: black;
    font-family: Iosevka Fixed, monospace;
    font-size: 14px;
}
.svgbob rect.backdrop {
    stroke: none;
    fill: white;
}
.svgbob .broken {
    stroke-dasharray: 8;
}
.svgbob .filled {
    fill: black;
}
.svgbob .bg_filled {
    fill: white;
    stroke-width: 1;
}
.svgbob .nofill {
    fill: white;
}
.svgbob .end_marked_arrow {
    marker-end: url(#arrow);
}
.svgbob .start_marked_arrow {
    marker-start: url(#arrow);
}
.svgbob .end_marked_diamond {
    marker-end: url(#diamond);
}
.svgbob .start_marked_diamond {
    marker-start: url(#diamond);
}
.svgbob .end_marked_circle {
    marker-end: url(#circle);
}
.svgbob .start_marked_circle {
    marker-start: url(#circle);
}
.svgbob .end_marked_open_circle {
    marker-end: url(#open_circle);
}
.svgbob .start_marked_open_circle {
    marker-start: url(#open_circle);
}
.svgbob .end_marked_big_open_circle {
    marker-end: url(#big_open_circle);
}
.svgbob .start_marked_big_open_circle {
    marker-start: url(#big_open_circle);
}<!--separator--></style><defs><marker id="arrow" viewBox="-2 -2 8 8" refX="4" refY="2" markerWidth="7" markerHeight="7" orient="auto-start-reverse"><polygon points="0,0 0,4 4,2 0,0"></polygon></marker><marker id="diamond" viewBox="-2 -2 8 8" refX="4" refY="2" markerWidth="7" markerHeight="7" orient="auto-start-reverse"><polygon points="0,2 2,0 4,2 2,4 0,2"></polygon></marker><marker id="circle" viewBox="0 0 8 8" refX="4" refY="4" markerWidth="7" markerHeight="7" orient="auto-start-reverse"><circle cx="4" cy="4" r="2" class="filled"></circle></marker><marker id="open_circle" viewBox="0 0 8 8" refX="4" refY="4" markerWidth="7" markerHeight="7" orient="auto-start-reverse"><circle cx="4" cy="4" r="2" class="bg_filled"></circle></marker><marker id="big_open_circle" viewBox="0 0 8 8" refX="4" refY="4" markerWidth="7" markerHeight="7" orient="auto-start-reverse"><circle cx="4" cy="4" r="3" class="bg_filled"></circle></marker></defs><rect class="backdrop" x="0" y="0" width="520" height="96"></rect><line x1="8" y1="32" x2="32" y2="32" class="solid"></line><line x1="8" y1="48" x2="24" y2="48" class="solid"></line><line x1="320" y1="48" x2="336" y2="48" class="solid"></line><line x1="400" y1="48" x2="408" y2="48" class="solid"></line><g><line x1="8" y1="16" x2="60" y2="16" class="solid"></line><line x1="60" y1="16" x2="60" y2="32" class="solid"></line></g><g><line x1="72" y1="16" x2="96" y2="16" class="solid"></line><line x1="72" y1="16" x2="64" y2="32" class="solid"></line><line x1="96" y1="16" x2="64" y2="80" class="solid"></line><line x1="88" y1="32" x2="152" y2="32" class="solid"></line><line x1="80" y1="48" x2="96" y2="48" class="solid"></line><line x1="136" y1="32" x2="144" y2="48" class="solid"></line><line x1="96" y1="48" x2="88" y2="64" class="solid"></line><line x1="144" y1="48" x2="128" y2="80" class="solid"></line><line x1="88" y1="64" x2="96" y2="80" class="solid"></line><line x1="96" y1="80" x2="128" y2="80" class="solid"></line><line x1="136" y1="64" x2="144" y2="80" class="solid"></line><line x1="144" y1="80" x2="176" y2="80" class="solid"></line><line x1="52" y1="32" x2="52" y2="48" class="solid"></line><line x1="52" y1="48" x2="64" y2="48" class="solid"></line><line x1="72" y1="32" x2="48" y2="80" class="solid"></line><line x1="48" y1="80" x2="64" y2="80" class="solid"></line><line x1="136" y1="16" x2="208" y2="16" class="solid"></line><line x1="168" y1="32" x2="248" y2="32" class="solid"></line><line x1="208" y1="16" x2="200" y2="32" class="solid"></line><line x1="168" y1="32" x2="152" y2="64" class="solid"></line><line x1="248" y1="32" x2="256" y2="48" class="solid"></line><line x1="152" y1="64" x2="184" y2="64" class="solid"></line><line x1="256" y1="48" x2="248" y2="64" class="solid"></line><line x1="184" y1="64" x2="176" y2="80" class="solid"></line><line x1="200" y1="48" x2="208" y2="48" class="solid"></line><line x1="208" y1="48" x2="200" y2="64" class="solid"></line><line x1="200" y1="64" x2="208" y2="80" class="solid"></line><line x1="208" y1="80" x2="256" y2="80" class="solid"></line><line x1="248" y1="64" x2="256" y2="80" class="solid"></line></g><g><line x1="264" y1="16" x2="368" y2="16" class="solid"></line><line x1="368" y1="16" x2="360" y2="32" class="solid"></line><line x1="360" y1="32" x2="504" y2="32" class="solid"></line><line x1="376" y1="32" x2="384" y2="48" class="solid"></line><line x1="416" y1="32" x2="424" y2="48" class="solid"></line><line x1="424" y1="48" x2="432" y2="48" class="solid"></line><line x1="504" y1="32" x2="512" y2="48" class="solid"></line><line x1="384" y1="48" x2="368" y2="80" class="solid"></line><line x1="432" y1="48" x2="416" y2="80" class="solid"></line><line x1="512" y1="48" x2="496" y2="80" class="solid"></line><line x1="376" y1="64" x2="384" y2="80" class="solid"></line><line x1="352" y1="48" x2="368" y2="48" class="solid"></line><line x1="352" y1="48" x2="336" y2="80" class="solid"></line><line x1="368" y1="48" x2="352" y2="80" class="solid"></line><line x1="352" y1="80" x2="368" y2="80" class="solid"></line><line x1="448" y1="48" x2="464" y2="48" class="solid"></line><line x1="448" y1="48" x2="432" y2="80" class="solid"></line><line x1="464" y1="48" x2="448" y2="80" class="solid"></line><line x1="416" y1="80" x2="432" y2="80" class="solid"></line><line x1="480" y1="48" x2="496" y2="48" class="solid"></line><line x1="480" y1="48" x2="464" y2="80" class="solid"></line><line x1="496" y1="48" x2="480" y2="80" class="solid"></line><line x1="448" y1="80" x2="464" y2="80" class="solid"></line><line x1="480" y1="80" x2="496" y2="80" class="solid"></line><line x1="320" y1="64" x2="328" y2="64" class="solid"></line><line x1="328" y1="64" x2="320" y2="80" class="solid"></line><line x1="320" y1="80" x2="336" y2="80" class="solid"></line><line x1="400" y1="64" x2="416" y2="64" class="solid"></line><line x1="424" y1="48" x2="408" y2="80" class="solid"></line><line x1="384" y1="80" x2="408" y2="80" class="solid"></line><line x1="256" y1="32" x2="272" y2="32" class="solid"></line><line x1="272" y1="32" x2="256" y2="64" class="solid"></line><line x1="256" y1="64" x2="264" y2="80" class="solid"></line><line x1="264" y1="80" x2="296" y2="80" class="solid"></line><line x1="288" y1="32" x2="344" y2="32" class="solid"></line><line x1="328" y1="16" x2="320" y2="32" class="solid"></line><line x1="288" y1="32" x2="272" y2="64" class="solid"></line><line x1="272" y1="64" x2="304" y2="64" class="solid"></line><line x1="304" y1="64" x2="296" y2="80" class="solid"></line></g><g><line x1="48" y1="32" x2="24" y2="80" class="solid"></line><line x1="8" y1="64" x2="16" y2="64" class="solid"></line><line x1="16" y1="64" x2="8" y2="80" class="solid"></line><line x1="8" y1="80" x2="24" y2="80" class="solid"></line></g><g><line x1="112" y1="48" x2="128" y2="48" class="solid"></line><line x1="112" y1="48" x2="104" y2="64" class="solid"></line><line x1="104" y1="64" x2="120" y2="64" class="solid"></line><line x1="128" y1="48" x2="120" y2="64" class="solid"></line></g><g><line x1="224" y1="48" x2="240" y2="48" class="solid"></line><line x1="224" y1="48" x2="216" y2="64" class="solid"></line><line x1="216" y1="64" x2="232" y2="64" class="solid"></line><line x1="240" y1="48" x2="232" y2="64" class="solid"></line></g></svg>